<mxfile host="65bd71144e">
    <diagram id="HIP3nbAZw_EuaXWnEj3U" name="Page-1">
        <mxGraphModel dx="713" dy="662" grid="1" gridSize="10" guides="1" tooltips="1" connect="1" arrows="1" fold="1" page="1" pageScale="1" pageWidth="850" pageHeight="1100" background="#00ffff" math="0" shadow="0">
            <root>
                <mxCell id="0"/>
                <mxCell id="1" parent="0"/>
                <mxCell id="7" value="&lt;font color=&quot;#ff0000&quot; style=&quot;font-size: 24px;&quot;&gt;Subway Menu&lt;/font&gt;" style="swimlane;whiteSpace=wrap;html=1;startSize=50;fillColor=#ffff00;" parent="1" vertex="1">
                    <mxGeometry x="40" y="40" width="1170" height="690" as="geometry"/>
                </mxCell>
                <mxCell id="8" value="Please place your order here:" style="text;html=1;align=left;verticalAlign=middle;resizable=0;points=[];autosize=1;strokeColor=none;fillColor=none;fontSize=30;fontColor=#000000;" parent="7" vertex="1">
                    <mxGeometry x="25" y="60" width="420" height="50" as="geometry"/>
                </mxCell>
                <mxCell id="12" value="Ham" style="rounded=1;whiteSpace=wrap;html=1;fontFamily=Helvetica;fontSize=24;fontColor=#000000;fillColor=none;strokeWidth=5;strokeColor=#000000;" parent="7" vertex="1">
                    <mxGeometry x="30" y="170" width="170" height="40" as="geometry"/>
                </mxCell>
                <mxCell id="13" value="Order" style="rounded=1;whiteSpace=wrap;html=1;fontFamily=Helvetica;fontSize=24;fontColor=#000000;fillColor=none;strokeWidth=5;strokeColor=#000000;" parent="7" vertex="1">
                    <mxGeometry x="40" y="360" width="150" height="40" as="geometry"/>
                </mxCell>
                <mxCell id="16" value="" style="triangle;whiteSpace=wrap;html=1;rotation=90;strokeColor=none;" parent="7" vertex="1">
                    <mxGeometry x="180" y="177.75" width="10" height="24.5" as="geometry"/>
                </mxCell>
                <mxCell id="32" value="What type of meat would you like in your sub?" style="text;html=1;align=left;verticalAlign=middle;resizable=0;points=[];autosize=1;strokeColor=none;fillColor=none;fontSize=24;fontColor=#000000;" vertex="1" parent="7">
                    <mxGeometry x="25" y="120" width="510" height="40" as="geometry"/>
                </mxCell>
                <mxCell id="33" value="Footlong" style="rounded=1;whiteSpace=wrap;html=1;fontFamily=Helvetica;fontSize=24;fontColor=#000000;fillColor=none;strokeWidth=5;strokeColor=#000000;" vertex="1" parent="7">
                    <mxGeometry x="30" y="281" width="170" height="40" as="geometry"/>
                </mxCell>
                <mxCell id="34" value="" style="triangle;whiteSpace=wrap;html=1;rotation=90;strokeColor=none;" vertex="1" parent="7">
                    <mxGeometry x="180" y="288.75" width="10" height="24.5" as="geometry"/>
                </mxCell>
                <mxCell id="35" value="What length would you like your sub?" style="text;html=1;align=left;verticalAlign=middle;resizable=0;points=[];autosize=1;strokeColor=none;fillColor=none;fontSize=24;fontColor=#000000;" vertex="1" parent="7">
                    <mxGeometry x="20" y="230" width="420" height="40" as="geometry"/>
                </mxCell>
                <mxCell id="38" value="" style="shape=image;verticalLabelPosition=bottom;labelBackgroundColor=default;verticalAlign=top;aspect=fixed;imageAspect=0;image=data:image/png,iVBORw0KGgoAAAANSUhEUgAABLAAAAJ2CAYAAABPQHtcAAAgAElEQVR4nOzdeZxdZX348c9z7sxkskw29kVZRC1U1BIgCWINViQJWgUEixWLRYpVtGrFEHAZN5IAirXSirbiUrEG1yJJcGlQERIEa/3hSmVRFGXNTJZZ7/n+/pigAQEJufc+d/m8X6+8GJKbez4zuXPn3O895zkgSZIkSZIkSZIkSZIkSZIkSZIkSZIkSZIkSZIkSZIkSZIkSZIkSZIkSZIkSZIkSZIkSZIkSZIkSZIkSZIkSZIkSZIkSZIkSZIkSZIkSZIkSZIkSZIkSZIkSZIkSZIkSZIkSZIkSZIkSZIkSZIkSZIkSZIkSZIkSZIkSZIkSZIkSZIkSZIkSZIkSZIkSZIkSZIkSZIkSZIkSZIkSZIkSZIkSZIkSZIkSZIkSZIkSZIkSZIkSZIkSZIkSZIkSZIkSZIkSZIkSZIkSZIkSZIkSZIkSZIkSZIkSZIkSZIkSZIkSZIkSZIkSZIkSZIkSZIkSZIkSZIkSZIkSZIkSZIkSZIkSZIkSZIkSZIkSZIkSZIkSZIkSZIkSZIkSZIkSZIkSZIkSZIkSZIkSZIkSZIkSZIkSZIkSZIkSZIkSZIkSZIkSZIkSZIkSZIkSZIkSZIkSZIkSZIkSZIkSZIkSZIkSZIkSZIkSZIkSZIkSZIkSZIkSZIkSZIkSZIkSZIkSZIkSZIkSZIkSZIkSZIkSZIkSZIkSZIkSZIkSZIkSZIkSZIkSZIkSZIkSZIkSZIkSZIkSZIkSZIkSZIkSZIkSZIkSZIkSZIkSZIkSZIkSZIkSZIkSZIkSZIkSZIkSZIkSZIkSZIkSZIkSZIkSZIkSZIkSZIkSZIkSZIkSZIkSZIkSZIkSZIkSZIkSZIkSZIkSZIkSZIkSZIkSZIkSZIkSZIkSZIkSZIkSZIkSZIkSZIkSZIkSZIkSZIkSZIkSZIkSZIkSZIkSZIkSZIkSZIkSZIkSZIkSZIkSZIkSZIkSZIkSZIkSZIkSZIkSZIkSZIkSZIkSZIkSZIkSZIkSZIkSZIkSZIkSZIkSZIkSZIkSZIkSZIkSZIkSZIkSZIkSZIkSZIkSZIkSZIkSZIkSZIkSZIkSZIkSZIkSZIkSZIkSZIkSZIkSZIkSZIkSZIkSZIkSZIkSZIkSZIkSZIkSZIkSZIkSZIkSZIkSZIkSZIkSZIkSZIkSZIkSZIkSZIkSZIkSZIkSZIkSZIkSZIkSZIkSZIkSZIkSZIkSZIkSZIkSZIkSZIkSZIkSZIkSZIkSZIkSZIkSZIkSZIkSZIkSZIkSZIkSZIkSZIkSZIkSZIkSZIkSZIkSZIkSZIkSZIkSZIkSZIkSZIkSZIkSZIkSZIkSZIkSZIkSZIkSZIkSZIkSZIkSZIkSZIkSZIkSZIkSZIkSZIkSZIkSZIkSZIkSZIkSZIkSZIkSZIkSZIkSZIkSZIkSZIkSZIkSZIkSZIkSZIkSZIkSZIkSZIkSZIkSZIkSZIkSZIkSZIkSZIkSZIkSZIkSZIkSZIkSZIkSZIkSZIkSZIkSZIkSZIkSZIkSZIkSZIkSZIkSZIkSZIkSZIkSZIkSZIkSZIkSZIkSZIkSZIkSZIkSZIkSZIkSZIkSZIkSZIkSZIkSZIkSZIkSZIkSZIkSZIkSZIkSZIkSZIkSZIkSZIkSZIkSZIkSZIkSZIkSZIkSZIkSZIkSZIkSZIkSZIkSZIkSZIkSZIkSZIkSZIkSZIkSZIkSZIkSZIkSZIkSZIkSZIkSZIkSZIkSZIkSZIkSZIkSZIkSZIkSZIkSZIkSZIkSZIkSZIkSZIkSZIkSZIkSZIkSZIkSZIkSZIkSZIkSZIkSZIkSZIkSZIkSZIkSZIkSZIkSZIkSZIkSZIkSZIkSZIkSZIkSZIkSZIkSZIkSZIkSZIkSZIkSZIkSZIkSZIkSZIkSZIkSZIkSZIkSZIkSZIkSZIkSZIkSZIkSZIkSZIkSZIkSZIkSZIkSZIkSZIkSZIkSZIkSZIkSZIkSZIkSZIkSZIkSZIkSZIkSZIkSZIkSZIkSZIkSZIkSZIkSZIkSZIkSZIkSZIkSZIkSZIkSZIkSVInSbkDJEmSJEmSWlr/gl4mDb2WlPYhut7B0mvuz53UborcAZIkSZIkSS2t/+phCnYDXkcxfj4XHrFP7qR24wBLkiRJkiRpRwSJMm3Z+vGrGI+PcP4Rz8xc1VYcYEmSJEmSJO2oFNss0xTPp1p+guWHH5svqL04wJIkSZIkSaq1xNOh+Agr5p/JyhMruXNanQMsSZIkSZKk+tiTiAu45RcXsnzOjNwxrcwBliRJkiRJUv30QnoDdF/Ksnn75o5pVQ6wJEmSJEmS6u84Ep/mvCPm5w5pRQ6wJEmSJEmSGuMIiuqlLJ/78twhrcYBliRJkiRJUsOkp0J6HyvmvSN3SStxgCVJkiRJktRYuxIsYfncT/D++ZNzx7QCB1iSJEmSJEmNNxnSKxiNVVx4xD65Y5qdAyxJkiRJkqR8FjBermbZvAW5Q5qZAyxJkiRJkqS8DiSly1g+7/TcIc3KAZYkSZIkSVJ2sQdwAcvnvS93STNygCVJkiRJktQcZgCvY/ncL7LiWX25Y5qJAyxJkiRJkqTm0Q3pL4nq11gx78DcMc2iK3eAJEmSJDWlIHH5iQU/ujuxx8YEwJ1Didn7THx831B6xL87e3JM3Ob2YI+tH9/ZFxy0S3Di5SWJqHO9pNZWAHMJ1rB83pns/4RVnHR5NXdUTo/8hCtJkiRJ7a5/QRezJ1cY+VUXmydXmDG5YPPIVIrYm660C1V2pWA3gtlQ9hFpGonpQC+ReknRAw8aRiVgDBgiGCGxCdhIYhDSvZRxNynuJhV3EsVviLSRkbEqU4eqbJ5dBcbpv3o8w1dC0o4IEivm9kN6ex3ufSMR72Rk8sX0Xz1ch/tvCQ6wJEmSJHWG/oN6YNceerZMotI9iSj3JeIgEgcBB5DYj2AfoJHrzgwBtwG3EdxM4icU6UeUxa10DW+h2jvC5OmjvH71SAObJG2v+g6wHvCvMLaUs28cqOM2mpYDLEmSJEnt6YOLJrHp3mn0dE2jHH8iZXEYwSEk/gw4KHfeY3ArpBtJ8X1I6yiqtzA2aRO945t403VDueMkPcSyef0k3lHnraymUr6Ws66/tc7baToOsCRJkiS1j+VzZlCpzCbYm6gcCXEkwZ8D03Kn1cAIwTrgGij/G+I2JnVt4E3X3Zc7TKq7IPHOBRVmT6486vpzuUwfSYzGW4Fz6r6t4AdU0uvZd+9rOmldrOb7R1d2sZauOzfRM3mcnkoXXamHoggqw4muCnRRnfh/iq2Pn4KUgsp2bydRZZzyd/cDUBJlokq5zToC3URZ8LtvyknB79YEiDHK6KIEiFHK6N768ThR3ebvjFQZ32Pod/dZZX+CjQQLJm6TMi+iGSvpuX8Wk2OsfRbzLMeInUfYkk6iKZ9QYy1d9w0xJXdHraRu0qz7GUonMfp47yP6Ke75M6YW3f5sqKUHPf/sQgDjLKCa+3mn6aw8scKtv57C0Hh7PP4mdwVD94/Q/6PH/T35uASJd86ZTC/dDHe1/mOsdzzR0zPKG68bbviC1/0Lepk81t02j0kA1m+if2Jfqe1ctGAmQyO7U4mDIB1DxELgibmzGuA3BN8gxRqqle8zaeQ3vPnGe3JH1cwDz2l0tcnFxyaX7LFxhDNuHMtd0rT650xh6qRpjJdTiJhCV+qFciplmg3FDFI5DYoZUDbZYyKVEAWRngssaNBG7yZxFt1pZacckdlGP5C1ve77GjOAGd1jTCuDvqjQl4LdE+wBzCaxUwR9kehNwRRgWoKpAZOAqWnr4yeCbhKTYbt3LLcA42mbx2FM3MfmbXdSIxhPiS1bbzDx5xMfBTCSEqMlpJQYJRgiUQSMp2CYoCSRUmITQRmJMmLi7xeJsYBhgkgwEhN/PyIxVJRUgWpZMLT198qu6sQgJhJVCoqy5NczJnN7OoodXmRz4yqeE4mTA8a3fl6tLVEAwyX886xF3JY75+EMXsWfRMmZAC3/NU+kBF0p+EzfYr75eO9m8xr2GA/OBiot/zVpFts8/wBEYizB5rJkYyrYlEo2VBMbi5KhssJwAZu7YPOWETbt8iI25s5vqPfM34vu8h+IYgoRrf/4S6lKKr/MkvVrG7rdixbMZHToZZAOptzxn0/ZFakH4lqGBj/T8GHgsvnHkXgO0NUWj0kooOutLL3m/twhNdN/UA89M/YnlX9KkRYS/CWwa+6sjAZIsYqyuIIo/5fe4taWf1Hbv2Aak4f/lpKnQssPXwtSGiRVP8+S62/IHdM0zjt8JyrFrqRyZ8q0D6SDIZ4C7AvpicDs3InNL95FT/FPnXAkZpNNLVUvsZLJG/rYrUjsmhK7Rsn+jHEgiQPKxL4k9nvgKKrfT44m/pO22WXbdu/tdx8//jHojIfe58NtKD3SjdLvb/qg28Q2SQ/c5mH+LB76eW3z+Ub6/ccP/Lcs/qDv0oHN/COwwzuCUXBoBGds29wOKsEXoDkHWMABwGuBtviaB0DBzfD4B1ijsGsBrwfa4mvSLOIhT5wBpLT14zRxfWQKqkXJPSTuGEv8sqebOwZWc3NK3E5wLwX3UOHu6c/j3iyfRCP0xG6U6c0QqT0efwHBb4DGDrBGxqZDOhk4si2+jhEQ7A67fh4aPMAinge8Bmif58Su8nxqsN+S3YVzdmas+2nAAlKcCOkg33YBYAaRTibFyaT0c8bicyw7/KuU6Yecu/63ueMel+6hqUR6BYk5uVNqI8Yg/Qzo7AHWe+bvRRH7kjiQFM8mYi5RPPX3N2iXJ91GSW9nNJ7IhUf08+Zrb89dU08OsNrYpivZvSzYL2DfgWBOAc8keEYEOwM+L+ygNHGkV00EtONVZbZENO+7/1HSdodu7+jjqCtRLYMqbP8pwdphFRK7AbulYM5Dhu8jlPyQ4KaB1Xw/FdxcDX7JELfPOo4N+ZJrrCyrkAYgzcydUiOjRGr8c3saLyFtaqsX80VsZup9jf+MJo7CHgO6G77tehkea+0jWJY/64mk6qGMcTyJk2inf5vaexLBElKxhC4uZ9n8L1JJ1/OWa3+eO2y79FSC8XJTG71uGYDU4GF8k3j//MmMcTCUh1LGMST+Apjqi9KaOZXxci/Om/c2zlm3PndMvTjAajOb17DHWMnBReIZ4zA/wTxgj+TzQs1FtPxhzJJawyTgEIJDgFdECUXix/Ry/cBqri8TP+4qualvMXfnDpWkulj+rCeSxv+CGH8pkY7x9e52Ck4kxYmU5bdYMfezVOPrnHP9z3JnqUOseFYfUT2S0VgEvAjSE/0erpujKdibFXPfzpL1n8sdUw8OsNpA3ED3xrs4nIJ548GzU2JBwAyfFySpTQUHAgcCf1OU/DYS3x5YzbdTwQ1917EutesizZI6y4Vzdqba9cLfDa60g9KfE/w5RbqGFfM/SxT/xdnf+UXuKrWpILHi8MVE9QTgJGBq7qQOcSCRPsLyufsyPPkD9F/dtGfEPB4OsFrYwBpmEzx/490cFYnnEhyQu0mS1GCJ3QJeArwkqtw8eDjf2LCa/y7GWTv9hbTPlagkdY5+CibNPY7xdDJwQu6cNnQkEUdC+UJWzLuMYsvnOOsHm3NHqY2cP+8QVsQpwKlAuywN0EpmQbqA3pG9uWhBP2+8um2WnHCA1YI2fZ3dxkc5nuAY4JiA3txNkqQmkHgy8OQEfx1dXL1hFVdUKny57xjuyp0mSY/JsiMOI1VPg/QyoC93TnuL5xP8BeWUY1k27yMsXff13EVqcStPrHDLHa+iGq8hpafnzlH8AyND+3De/KWcc91PctfUggOsFnLXWqZNGuYV1TFelBJH44p3kqSH1we8MCUWlSUnbFjDl2YM8ol0Eq19OXVJ7WtigeczoDyNSE/LndNBKhNrZHEYy+ddRtn9Ac75tmsqavudf8STuOUXZ0H6W5IXWGge6cVUyt1YMf9tLLnuG7lrdlSRO0CPzcBqTp40zOXARcDzcXglSfrjuoBjUnDRYB+f2bCKl+QOkqQ/sGzuHEb5JBEXEDi8ymNf4ByK8f9k2bzn5Y5Ri1k+90jK6scgnYFXB20+keYTcQkr5p+WO2VHOcBqcvet5ukDq/kU8EFgIdCTOUmS1Hp6gRelxMWDa/jIwFd5cu4gSQJg2fy/JaVPQbwEzw5pAvFcEh9lxdy30e9rRT0G581dDOlSSH+eO0WP6klEvI/l896dO2RH+KTUxAZW8YYKfAZ4ObBz7h5JUsvbNYLTKVk5uIZX5o6R1MH6F0xj+bz3k+JCJq6qquaxL5HOpXfeZ3jv3N1yx6iJnT//BRTpEvBiYi1iBnA2y+Z9nP6503PHPB4OsJrQfV/jiYOruZzEu4CDcvdIktpM8MwILhxYw79s+AqzcudI6jDL5h9A7/BK4HXgc1CTmgScRCVdyQVzXYxbf2jZ3OdTxiXA3rlTtF26SPwNvenznDe35WYNDrCazIZVPL8yzte2XhLdK69IkuplNsEZVPjihis5NHeMpA6x4vBDIT4PLMJTBlvBHKrpSyybvzB3iJrIivmHk9K/AHvmTtHj9jyK9J8sn/fC3CHbwwFWExlYxesSfBJ4Su4WSVJHKBI8JxWsHLyKF+SOkdTmzp//HKL4EgmP6Gkt+5Hi46yY99e5Q9QELjh8PyJWAE/KnaIddjDwr6yY/4bcIY+VA6wmECupDKzmfSTOI+F55pKkRtsvSj4xsIaX5Q6R1KYmTje6HNgrd4oel92I+BAr5rp+YifrXzCN8eINgAu2t4+9iHg3y+delDvksXCAlVmspGdwGp8EzgSm5e6RJHWs2QSXbFjF6blDJLWZ5fOPIaWVwC65U7Qj0kwifYDl88/IXaJMeodeQOIMnCO0m2mQXsvyeV/ggiN2zR3zaHzgZRSrmDTYx6dIvBToyd0jSep401Lig4OrOTV3iKQ2sXz+ERCfYeLqV2p90yFWsHzuX+UOUYOtmHcgpHcxscC/2k838CKqcSXLjjgsd8wjcYCVSaylazDxSSYWa6/k7pEkaavegEs2rOGE3CGSWtzyw58B8QW80mC7mQHpYpbPPyZ3iBqkf84UyjgFeHLuFNVVAXEoqfwCy+a9lCDlDnooB1gZxFq6Bob5VyaGV/4bSJKaTU8KLr1/DUdFE+68SGoBK+buDZVPg+u7tqnZpPgo5809KHeIGqBn0jNI6c25M9Qwe5P4BOfPP5tL5nTnjtmWw5MGi5VUBoc5O8Gp+PWXJDWvvqLkkk2rOTB3iKQW0z93OlF8GOJPc6eojoInUKT/YNmRHmHXzi5aMJOi+iomTjFT55hExHls6PkQF87ZOXfMAxygNNjAdF4MnAt05W6RJOlRJZ4ciXdvXOXCy5Ieo/4FXfTyjxDH5k5RQzyTYvwS+hf05g5RnYyOPAWSV5/sVBF/x3jPp3nvEU/LnQIOsBpq4xr+NJVcDPgEL0lqCQHHR+LUWOsbL5Ieg97hoyG9PXeGGiYRHEvv8Oubcb0c7aD+OVMIXgb+23a2eD6V8rLcFeAAq2HuXcX0MvgoyXUAJEmtJWD5xlEOz90hqcm9d84ewEdzZ6jhpkB6A8uPODR3iGpsyqQ9IE7OnaHs7ge+nDsCHGA1THfibMAndUlSKyqiZPnAGmbnDpHUpPopqHQtB/bKnaIcYg9SuYzlc2bkLlGN9FMQ1SOAXXOnKKtfQbyes9e9LXcIOMBqiIFVzAs4Axe+kyS1rmcHnJQ7QlKT6j18EaRX5M5QVkeQel6TO0I10junjyhenjtDOcX3SXEKZ6//j9wlD3CAVWd3rWUaifeA71pLklpbKunfcoVHV0h6iBXP6iMVy3NnKLvJRJzKsvkH5A5RDUTPLhBH5c5QFiWkL1PGS1myfm3umG05wKqznmH+Gpibu0OSpB2W2G28izNzZ0hqMjH+WoIDc2eoKTyFIv6RlSdWcodoB/RTUMRcPIOoE20h+BCM/g3nXP+z3DEP5QCrjjauYpcEpwPTcrdIklQLAa/Z/FX2zN0hqUmcf9jukM4EHFhoQvBCbrv9iNwZ2gFTnz6ZYGHuDDXcXSSWsnTdP3D2jQO5Yx6OA6w6isSp4LtRkqS2Mn28yt/ljpDUJKJ4E3iVbT3IXpTFKVwyx6N3WlXX7G7gubkz1EjxUyJew5J1H8xd8mgcYNXJxlXsEnAcMCV3iyRJtRTwqrvWenSx1PHeO3c3Ip0IdOVOUdNZxP1dLqPSqkbHdgOPtu4g36BMp7F0/edzh/wxDrDqpJo4Djg4d4ckSbWWYK9Jw7wwd4ekzCrpNHyRq4e3Nym9OHeEHocgwbivYztF4t8oijM4Z913cqc8Fg6w6iDW0gssxLWvJEntKSLx6twRkjLqnzMF0nFAT+4UNangeayY53IqreYjc7oID8ToAFXgbQzFP/KWa3+eO+ax8nDfOtg0xNwEc0i5SyRJqouUgjn3X8k+s47l9twxkjKY1HMMxJNyZ6ip/SlwNPDj3CHaDnf2VegdflruDNXVvaR4I0vWfyp3yPbyCKw6iMRCEnvn7pAkqY56igqeHiJ1qiJOBmbkzlBT6wKOZNmRs3KHaDtMva8CPD13huokcRMpTmzF4RU4wKq5gTXMDjgEv7aSpPbWRXBC7ghJGSybt+/WU4zc39WjC54No3+WO0Pbbd/cAaqLKxgvTmbJ+rW5Qx4vf+jUWnAY4CGXkqR2l4A/Gfw6O+UOkdRgiaNx8XY9NruT0iG5I7QdRqbOxKWG2lB8gPH095x77U25S3aEA6wai8QcYPfcHZIkNcBkxjkyd4SkBkv8BdCXO0OtIs3xNMIWUil9Ldt+Xk/qejtvve5XuUN2lAOsGoqV9KTgQPy6SpI6w6Sy5Nm5IyQ10Hvn7kbwZPByRXrMDiXGn5I7Qo9BkEjJoyvbxz0QL2bW2IdZ8p2NuWNqwUMDa2hjH/sBB+TukCSpQbpT4vDcEZIaqJIOAXbNnaGWsh8p7Q+szx2iP+KdJHo9m6hN/A9RnMHZ195AInLH1IoDrBqKxAGU7Of7UZLUNG4HfpJgUp3uPwJ6AqYn2APYuU7baV7BPnED3elQxnKnSGqEdBiEL3C1PSrAgbkj9FhFjwdYtrz/pFKew1nrbmVp7pTacoBVSyX7k3xHSpKaRYLPbCl4T9FT3z2xyhBFMUIR05heVDksBScEvDjB5HputykkJm+6h6cAP8ydIqkhDqaTX0MkfknJ/5K4GbgD4i6i2ExiCwXDlPSSYhLEDCLtAumJwAEQzwD2zlyfT4qDeO/c3Th3/W9zp+iPiDTN+VULi/Rueie9nzdevSF3Sj107g+fOkiJPcNxtSQ1jYCR3Y9hcwM3uSH6uYODuGLDVPYoCs4p4ZQ2H2T1jAdPxQGW1P5WPKuPstytg/Z2A9gMXAXpC0RcS0/6LV0zSybdVTJr/5IfXT5xas47HnKKzjtJHHRi4v5bCkZ2LRjfUDDCXqQ4CuIESEcB3XTOa4cD6GE3wAFWs0t0507Q4zJEpDMZmfRJll49njumXhxg1UispXdwmL1yd9TZOFBl4pSZB/2QTg//w/ehv/dYbrO9t38s29ieP3/MUiK1zcnEUrtKjX9hkPopgVHg9ghevfGrXEHJv0b7vvPeXQn2zx0hqQFS9ckkdsqd0QBV4LdE+gDR9XFGv30v7yD+cB2ZG3//Yf8f3EfA5Q/c1wP+j+DnvJN/p+uwvejqeg3E3wEzaf+LQD2Jkt1yR+iPOOjExC13TKV9lkzqBAHcQvBqzr7uG+203tXDcYBVI1vGmE1i5zZ9uAwDtyT4Lwq+U4xzewkjKf3+8ZOCStlFHyURQaREV8BUEokgSHRFyeSU6Nr65ykFU8qJCX8w8XvT0jaPyUj0ss26NRH0JJiy9f4iTaw7Mw0ot26lh4mjHBIT38hdCaaUiQox8S+ToI+0zQ5CMI2J8/K3/jG9QM9DPv+0zUe//zjYHGNt+i8uqSbSxE7EVwZWcQ+JlcATcjfVQVcbD+ckbStif0izc2fU2SaCT9Lbe+6DTsH5wwHV4zPxcyHgu78ElrJi7sVEWgacQHsfrTuNsui8dSLVbLYA4xBl/TaRepl4TdkI48C3SZW/5+zv/LTd1rt6OA6waqQMZhNtuXjvbwL6Z6zno1uPKug4sYpJbCLYn7h7I5MmDzGZCml4hKGdX8ym3H2Smt+MxazbsIqzUuISYEbunhrrIrFH7ghJjZD2pP2ew7Z1N5Fey9LrLm/YFpesvwM4hWXzvkHiA7Tz1zeVrhWsXKrADUT6JyrpesYrg/RsCUan1PBI/ZGS7q4K1TgL4s21u99HNEziP+jpPatd17t6OA6waiSqzCC12Q+c4OYyOGnWsXw/d0pOaTEj2/zvGDi0krT9Zi7mswOrWQS8gvZa86QA2v2IDEkT9qR9jxK6H4qXsPTab2XZ+tJ1H2fZ/N+Q4jJgVpaGukt7csmcbs640avWqpGC4BpGehfSf/Vw3be2bN7m+u/lxQZgBUvWL6/3lppNu59r3TBlhSlMnM7WLjZGhdd2+vBKkmqp2sXbgXZ8l2xm7gBJDRBte7XtEeDVnJ1pePWApdetIfE6aOjFRxon2I3NPX25M9RxNlBwaUOGV0EiRb3HV7eR0pmc3XnDK3CAVTNFyWQSU3J31NClw3Bt7ghJaiezj+YXJL4KbXdKti9IpM4wNXdAnVzG8LrP5Y4AoNjyJYJLc2fURWI6Q6OT/vgNpRoKBinif3Jn1ESK6yBOYcm6T+dOycUBVo2UiW6ibS45Okriqw2+9LwkdYaJFyZeAEJSawkS7Xn64CBF8V6aZa3Xs36wmQqXQrozd0odzKQo2vExpGaWGIfYmDtjB41D+hxj5Us5e/01uWNycoBVKyVdtM+aYrcGtOMPTUnKbnov36T9Tg9ppzW9JD2cf17UA/HQKzW3g8vZMtJc+71bBm+C+FTujDqYQtHTLm/4q3UE1e5q7ogdsJnEPzFr9GW89bu/zJLaWz0AACAASURBVB2TmwOsGkkFFaCSu6NG7isSW3JHSFI7SkcxDPxv7o4a84gyqd0NDfZAapd93W19nnfcOJQ74kH6fzRKStcB9V+zp7G6oOrrTzVeV93XpaqTdCeJc1iy7s1e/GCCTyA1EhOLP4780Ru2hu5U9bEhSXXUXhfISE1y6o2k+ukuu2mfsw0eMESl/AmpCYfwRXkL8NPcGTU2mSI8Akt6TOL7BK9lyboP5i5pJg4paiSCoH3egd4/CnbKHSFJbezW3AE1FR61K7W9kUo77etOCG5mtNqcRzmN9dwJ3JI7o7ZSUC3a6zEk1UNiFSlOZ+l1X8yd0mwcYNVIJRgD2uWwvtlRMid3hCS1reCu3Ak1dk/uAEnabinuZFKT7r+P3juAz61SJ/oo42OvYsn1N+QOaUYOsGqknFiQd1PujppJvHrjVzgwd4YktaWCe3Mn1FAV2m4gJ6kTpDTI2OTmXNy5/0ejEO12wQ9Jj2wUeBvDg2dy7o3NdWGJJuIAq0aKxBDtdVWpp5ZdvG/wCnbOHSJJ7SZKRnM31NAYiV/kjpCk7RaM0NvVvKe0pSY9OkxSrf2a4AzOXveeieG1HokDrBopSjbRTkdgAQSLootPbLiK/XKnSJKa1lgK/i93hCRtt6C5r0wWqXmHa5JqZT0Rr2Tpuo/nDmkFDrBqZKSLDdBWp4Q8YHEqWTm4ihfnDpGkdlHA1NwNNTQawU9yR0iSJLWYlVSLV7F0/Vdzh7QKB1g1MjLKvURbDrAADo3ExQOruXjTleyeO0aSWl7RVqdnj0zfxP/mjpAkSWoZifdRjddz7rU35U5pJQ6wamTPF7IFuDt3Rx3tCbymLFgzsIZ/iH4fO5L0eAXsnbuhhm5NJzGUO0KSJKkFjEG8gWLLOzh3/W9zx7QahxA1lBK/yt1QbwHPIHj34DyuHVzNqbl7JKklBU/JnVAjowm+lTtCkiSp6QW3k3gJw5Mv5qwftNMF4BqmK3dAO4nErwg2015rmzycPoK5kXjqwGpOS/D+6Yv4Yu4oSWoh83IH1MhICq7KHSFJktTc4ltQeTNLrv1u7pJW5hFYNZQStwF35O5omGAmcGTAvw+s5tsb1nBC7iRJanZbr+z6hNwdNRHcP21Xrs2dIUmS1MQ+znj5cpY6vNpRDrBqKFW5Gfh57o4MZgFHpuDSgdV8d2A1J+cOkqRmVZQcR3scAV0lcUU6lLHcIZIkSc0p3sVw7+t463d/mbukHTjAqqFpi7gHuDV3R0Z9wKHAv21Yxf8bXMMrYyU9uaMkqZmUwSuBSu6OHRUwmgouy90hSZLUhO4hcSrDG99L/9Wbcse0CwdYNZQSEfADYCR3S2ZTUuJpEXx4sI+fDqzmjRu+wqwIUu4wScppw2pOTIkDcnfUQoKb+q5jXe4OSZKkppGYDNwNxQkMrfsU/T8azZ3UThxg1VrJ9yK4OXdGk+gB9gXelyr8dPAq3n3vVTwhbqA7d5gkNdpda5mWoB/ozd1SA+MJLk79lLlDJEmSmsJF83uJyldI5WLOvvZbuJ9Uc+2wBkdTmbGYGzeu4ccBT8vd0kQSsAvBuV3BGwbv5hODV/HPfQPcnk5iKHecJNVbrGLS4AgXA0/N3VIjt/X18tncEZIkSU3jTdcNAd/KndHOPAKrxlIigHVANXdLk5oKvCZKfjTYx0c3rOGQe1cxPXeUJNXLXWuZtrHgnQR/RRusfQWQYHk6iuHcHZIkSeocDrDqoCj5WoKbcnc0uQT8dQpu7Ep86v7VLBi8gp1zR0lSrUQ/xZYr2KtniA9GsATa5qIWP+zbyKdyR0iSJKmzOMCqg2nH8v/K4HtA5G5pEX9ZwNqocNnAGo7dvIY9cgdJahvjjd7g3V+mb8NX2H/wcF4+1sW3UuKVjW6oo3ESb+ZExnKHSJIkqbO4BladpILPEywCds/d0jISRxMcPQ7XbFjFhyJYN+tYbs+dJaml7bFxFQdR1PcqqGNBpZLoJXgSMD/geGCvem4zk8/NWMia3BGSJLWogqZ/DR4e5KKm1eTfPK1r+iSuGhzmeuAvc7e0oCNT4siUuHHDaj5SwDf7FvKzreuLSdJjF/xtmXgpUde1p4oKTNl2G3WdlmUS8KuyiyW5OyRJamG9REzLHfHoYkZ77smoHTjAqpN0FOMbVnFZSiwAFyl/nOYkuKQMbhpcw8fuW803Zi/iB7mjJLWUSVt/aceMAG+cfTS/yB0iSVIL6wV2zR3xqCLt5fxKzcrDA+toxq58Abgmd0erS4mnAe+vwOWDa3jLhquYk7tJkjrMJTPW8/ncEZIktbiCKPbLHfGI7r+loOAZuTOkR+IAq47SoYxF4iLgvtwtbeIpEaxIJZ8dWM1bB1czP3eQJLW94GsjvZyb+ilzp0iS1PKK2J8L5zTn1dc3dB9A8ITcGdIjcYBVZzMX8vUIvgzu+NfQk4B3B/zHwBreM7iKZ+UOkqQ2dUOUvHrXo9iUO0SS1KFStNcJbcGBVLuPyZ3xsIJTcydIj8YBVgOkgvOA/8vd0Yb2Jzg3Eh8fWMN7NlzJobmDJKltJH4cJX8/8wXckjtFktTJivHcBTU2G+JY3j9/cu6QB1l25Czg5bkz6mKsbK8haAdzgNUAMxbyfwTvBaq5W9rUAQTnkrh0YA3vuW81T88dJEkt7icRvG7msdyQO0SS1MHSSEmK4dwZNRfpaMZiUe6MBynGzwX2zJ1RByXl2EjuCNWGA6wGmbGYTwZ8PHdHO0uJpxGcW4FLB1bxrvtXs2/uJklqQT+JgtfPXMQ3codIkjpc0VMCG3Nn1MHORFrK+Uc8KXcIAOfNXUzw6twZdTLO5J4NuSNUGw6wGqi7wtuBG3N3dIBDSLytgE8PruZNv76CKbmDJKlF3FiUnDHzGL6WO0SSJAbLcUgDuTPqIw6ljPfx3jl7ZM0474j5FOmfgKlZO+qnyhuva7+j+DqUA6wGmvp8fh2JvwPuzt3SIY4IOG9aF18ZWMUrcsdIUjNLsLYKf9t3LN/K3SJJ0oTxccpo49dO8SKK7g9z4RH7ZNn8+fNfQFFeAhyQZfuNMUoickeoNhxgNdjMhXwvJU7H9bAaZVLAUSTeP7CaL21cxXNyB0lSE/pEWXDa7EX8IHeIJEm/1zdKkX6Tu6KuEn/JeHk5yw8/tqHbXT73bMr4V+Dghm634eKe3AWqHQdYGUxfyJdTattzjJvVTsCLysQnBtZw0b2rmJ47SJKawHBKLEnd/OPMY7g1d4wkSQ/Sf/U4idtyZzTAYVBcwvJ5H2P5/PoOlJbNP5nl874G6e3A3nXdVn5VSHfkjlDtdOUO6FR9g1w6OJ2pBB/I3dJh9iE4s6tgwcAaLpixkMtyB0lSDgHfDOifOci16SRGc/dIkvSwquWdpJS7ohH2Al4JsYDl82+E8vMMT/4K/Vdv2uF7Pm/+n1DES0gsJOKpwM47fJ+tYYSUfp47QrXjACuTdBLVWMWHByGRuCh3T4fpIngm8M+Dqzi+mnjzrEUd8c6OJD0gUuL2GQ6vJEnNLmIjKd1D5wxd9oPYD9JR9A6/i2Xzfgrpf6D8XyqVnzNWvZNz1//2Yf9m/4Jp9GzZk0rlCcCBRPlnkA6G2A3Ymei4i1uNQHlz7gjVjgOsjNJiRmItHx4cJgHvz93TgWZH4vgCDtmwimUzF/PR3EGS1CCJ4PjB6Tx9YDUrZiziP3MHSVLDJcYYuHowd8YjijRCcu1pKt2biPIHEM/NndJgOwE7kXgyxPMgDVGWI3SlMZbPGwfKrb8AEqSCGK6Qim4ieoBeSJOBSq5PoAlsoVrclDtCteMAK7N0FMOxin/ZWLAhgo/l7ulACdgvJS4aXM3CFLy6b7FXiZTUEaZtPRr1I4OrOaEKZ3k0qqQO81J65x/D8mjSKVG4ZuuEjRDfBzptgLWt3q2/eOTr6cXEKxttawsH7O0RWG3EAVYTSIsZiZV8cuM07onEp4G+3E0daGrAiyPxtIE1vGnGQq7MHSRJDdIXcHwBzxpcw7nTF3Jp7iBJapDJEJNzR+iPeMt3NrF8/jqPRtN2CogfctLl1dwhqh2vQtgk0klU+xbxFUqOBn6au6dDFcBTCC4bWMM7o9/vD0kdowD2iODDg2v4yMar2DV3kCRJwMRJ75S3ACO5U9RShoji2twRqi1foDeRlIgZx7J+PHheCj4PjOdu6lDTCd62cS6fHbyiYxaLlCSAngheVQZXbbiSQx3kS5KaQsFvgW/nzlBL2UIlvpE7QrXljmkT2mkxd/RN5uUBbwc25+7pUCngJdHFFZuu5OAIzyiX1DESwTNTweqNc3lBrHW5AUlSZkMb7yKl/86doZZyD29Z973cEaotB1hNKh3F8MxFLIvEi4Ef4tFYucyrFnxhYDVHxcqOvoKHpM6zc8CXB4Y5LVbSkztGktTB+n80SuJafE2kx2YM0lW5I1R7DrCa3MyFfJ3Enwd8HLg/d0+HOiAlPj0wjeM8EkFSp0nw4cHpnB5rt179SJKkHEbHbwG+mTtDLWGIMi7PHaHac4DVAmYs5L6Zizg9gr8j8X1gLHdTB9o9JT48OMRLHWJJ6jjBhzYOcaZHYkmSsnnrd39J4r9yZ6gFBLdxzrrv5M5Q7TnAaiEzF/O5aoUFJC4O+FXung60E4l/GhjheBc2ltRpInHBQB+v9PlPkpRN4hrgN7kz1NSqTJy9pDbkTmiLmX00AzMW8sZInAKswUXeG22nFJw/OI/n5w6RpEZL8OGBebwkd4ckqUOlLT8FLsudoaZ2H9H9H7kjVB8OsFrUrIWsnb6eY9PElQpvyN3TYfaJkgs2XMWc3CGS1Ggp+PeBVczL3SFJ6kBn/WAzwRUQG3KnqGl9jnO+fXfuCNWHA6wWlvoppy/i/eMFxwdcAPw0d1OnSImnpZLzNq9hj9wtktRg01Liks1fZc/cIZKkDjQS3yOl/8ydoaa0mbL8QO4I1Y8DrDaw0zH8cuYi3kJwKhPn+96Zu6lDPL8avMMrc0nqNAFPH69yYe4OSVIH6l8/SMlnAY+y0YMlPsM51/8sd4bqxwFWG5mxmHUzFvHKlPh7Ep8FBnM3tbuAMzYO81cuaiypA508sIZTckdIkjrQpLQekmthaVsDFOV5uSNUX77obkPTF/Ll6TtzCom/j8SXgDJ3UzsLePumQ3lq7g5JariS99x/JfvkzpAkdZg3XTcE/Dvwf7lT1CRSvI+zrr81d4bqywFWm0qHMjZjIZfFEK9MwelMXLFQ9bFfWeHcWElP7hBJaqjEE4uC/twZkqQOdPZ1/4/EPwMjuVOU3Y8puz+UO0L15wCrzc06jg3TF/Ox8eD0lDgduCp3U5v668HpPDeClDtEkhrs+MGrOCJ3hCSpA1XLT0PyjfpOV6S3sPSa+3NnqP4cYHWInRZzx/SF/FtZckYKTiP4Wu6mthO8657/YlruDElqsL4oeUfuCElSBzrn+nsJ3gl46linCj7Evnuvzp2hxnCA1WFmHcvt0xfzsTI4neDlwJW5m9rIYd09LIyVVHKHSFIDJRKH37+aBblDJEkdaOl1/0NwHl7AqhNdT1FZxkmXV3OHqDG6cgcoj1nHcjtw+72r+GZ34rASTklwXO6uVlfAW++czJXAltwtkgBYx8Sp03313EgEkRIFMAmYDewNHAzMqOd2m0YwvYA3AlfnTpEkdaCRscuY1P0MEmfmTlHDbKJIb+Et3/l17hA1jgOsDrfTYu4A7th0JddVEx8lcQpwcu6uVhXw9KldLIh+1qR+r/4o5Zbg6r6NnPfbGXTXe1tFD6kyRNEDk8YTU1NiNiX7kzgmwWkTOW2rSHDI/VfyzFnH8v3cMZKkDtN/4xbOe/a7KMb2J1icO0cN8SbOuu5bvCV3hhrJAZYAmHYsvwFWD17Bd1OFS6rwNynxytxdLerVvICv4QBLyi5gOJ3EKDDa4E3fDdwGfO/+L/L1mMS/FIk3Aqc0uKNhAnYvCl4BDrAkSRmc8+27WfGs06H6X8Cc3Dmqo0jvZvbox0lE7hQ1lmtg6UGmv5B7+hbzzRjhTVFyWIJLwCeG7XTMwG94Qu4ISUDK/3Nu1nFsmLWY/4kq/5CC04Cx3E110gU8+95VTM8dIknqUEu+82vK9HLgZ7lTVCfBv5BG38cZN7br/pQeRfYdezWnWcexYeax3DAyyllFwdOBDwLjubtaRE/RxXHR7/eXpN+b+QLu75vMJ1NwEo0/Iqwxgid0FxyVO0OS1MHOue4nRPorJo6EVjsJPk0Z7+LsGwdypygPX2DrUe3yIjb2HcNNm8dZSoWDUmIFLlD+R0XwMp7j95ekB0tHMf7/27vzMLnKMv//7+dUdbo7SXcnLCowjorj4DDugEl0VPJVTDqIuxn3ZWbU8ev8HDdIEJXGhRBRZkTF8euGo+IY3JEkIJIwCOkEkEUNO7LJkkCS7k7S3emqc//+SIMIhGzVfaqr3q/rynUl3VXn+XSlq+rUfZ7nfjrW8IuIBm0ym9g/YE7RMSRJTe74VVdC/mosYjWSs8hHjuWE1fcWHUTF8QO2dsmBx7C16+Xc2JFzYiU4hODTJDYVnauOPWfTEH9VdAhJ9Sf1kHe1811gSdFZxkBG8KxYwqSig0iSmtzCNVeTmAdcV3QU7bUzyVs+yAlX3F10EBXLAtYY2HQuhw+cy4tjCe1FZ6m1NI/hfedxZ2c7nyqVeXoEHye4F/tkPVxWSrys6BCS6lOazRAlPk5jLiU8oH8qzys6hCRJLOi9FkpzgNX4eWUiCuBLpNIH+NjF64sOo+JZwKqh6CHrX86LUsa51YxX8AaGis40VtJsKlNfxr1d3ZxcbeGQlDgWuI3GbU682yI4qugMkupXZ4XbCb5VdI4xsF/Ac4sOIUkSAAsvuZ1UOgr4GX5WmUi2AR9nQe+/s+CSgaLDqD5YwKqRWMKkgRm8LYKfAI9LicGiM42HlIh9jqKvcy5f6Gzj6SQ+ROLaoDl+/p2YEUEqOoSk+pTmMUxwJpAXnaXGOrPEc4oOIUnSgxZcMsBQ7+uJdAqwpeg42qk7SfwTC3tPJjlzTn9mAasG1q1gan8nJwScCexXdJ6ipNkMdc3lK52tPCuD/wtcCWwuOleBDtxwvn2wJO1Yvo3rgRuLzlFrAX9tAV+SVFd6yDl+1SdJvBm4E5cU1qMR4DdEeiULer9fdBjVHwtYe+n+83hi6xBfIvhk0VnqRZpNpbObM7u6eR7B+4HfAv1F5ypAasldRiNpxwbLbCNxYdE5ai4xfctSHl90DEmSHmFB7y9IMYvEMpr7Ynu92QjpDIb6X7p9F0npkSxg7YW+ZRxRCr4HvLPoLPWqax7/3dXNYSnxEWAN0Ezrl1Me/F3RISTVrwMGGSant+gcNRdMq8KTio4hSdKjWrD6Thb0Hg3xceD2ouM0uRHgt0T6Zxau+iA9axtxgxvViAWsPRArKPcv45XA2Sl4cdF5JoLOuXyjq5sZBCeQuIrmaKCYgEOKDiGpfqX5VElcW3SOMdCZZxxUdAhJkh7TwtVfJE9zgJ8A9xcdp+kk7oB0Bq1tL+X4VT8tOo7qnwWs3XTPeUzpH+b9AT/Cq8u7rWseX6qWODIlTgNuKTrPGEtZ8ndE0mOrlrm36AxjYEoK9i06hCRJO/WxVdexsPd1kD4ArMbNqMbDBuAcInsrC1d9kA+t3FR0IE0MFrB2w+YLeHxblZMI/hNoKTrPRDW6a+FCgrcAvwAqRWcaIymCJxYdQlJ9aw0qwNaic9RYO7BP0SEkSdplC1edxVDbkRCfgnQ5UC06UgPaQnARwUdY2PtKFl76v0UH0sRiAWsXDZzHM6ojnD7ay0k10DWP3s42XkfiZKCv6DxjIvG4oiNIqnM5QeO9BrZkiWlFh5Akabf0rBxi4epTyCrHQHyW7T183a1w722F+F8SH2O4bS7H955ZdCBNTOWiA0wEm5by8jz4FDCj6CyNJs2mApzYv5TbYvuywq6iM9VYKVbQlmYzVHQQSfUrIE9Fh6ixSLQVnUGSpD1y3GX3ACfymSO+Qbn0NuBlwAuBScUGm3A2klgFcS6T2s9yqaD2lgWsnehfxjsDPktwYNFZGlnnPL61aSmtKfGfNNYbQ9o6wj7AXUUHKYBXq6Tm1lp0AEmS9srHL7sDOJlTX/AN8urriWw2xCxwo5LHlm6BuJTEcgZHfkrPFY3WKkEFsYC1A7GESf0dHBfwcTwJHxfT5vHVvuW8hOD1QKnoPLVSyZlcdIaCTCLRaJNKpNrLSKnaeK8TyXMMyFIxhfxosAsIkYItLeP/M0UKr8VIAuDYS9cBZ3B69zfZvOGlJP6BlGYBL6KBPrfspa3ApURaRZavYMHqFUUHUuPx5PJRbFnOAQNwEsG7i87SbFJwYkA30Fl0lhpJWfMuo2lJWf1udpAyWiIvOoUEaZhEueGWTwsg8vE/zxrJE+VSo53flaFcwM8UGTTYhZjypMb6eaTx9oFlw8BSYCmLZj6ZlF5MilkEM4DnFpyuCNvY3idsDcEasriEhb13Fh1KjavRTnD22qZzObwSnATMKzpLM+rs5vq+ZVwHHEGDnDTmOe1FZyhMML3oCDuSVzkgNcRvmCa6agvTiMbbVCXypt+9KQEd4z7qpJZJRHUq0UgvcGkKk6uTgf5xHriDRptZUR0aKTqC1DCO770VuJUlb/g+t/7pmUT1mQTPgzQTeD6Nu2FaH4lLgDUQf4Dy71hwyfVFh1JzsID1EP3LeE0kPknwnKKzNLnLgMNotJPGJpTD38cSlqf5bCs6y0OtW8HUNOTzXMWLHrKBnKc1Rrn+YbLdXHuVlRN5Q9W8MlL2hHEfNR9pg1KD7YAbXVRSJ3DP+A7L4xtuKfzkjsGiI9SZ1cD3Cerzccl4HcHcomNoJ+afXQWuAq6ih+/TPvMQ4HkEXwT2LTZcjUW6GPLPUMmvHe0PJo0rC1ij+pbxgYCFBAcUnaXpBetI5DRKAStv2KsvO5XBy7Z2ciZwd9FZHqptiIMCji46h8RLmBSDPK/oGGMidnP31REqlArqGTU2MiIKWE5S7oJ44viPO6aeTMoOBG4YtxGXvKHELXeMfwFyrPUNunj+L8QfWLj6S0Wn2KFFM/+KZAFrQukhh95r6TnyRtqGPk2jFbBSXMfC1ecXHUPNq2k/WD8gLqdl01I+D5wMFq/qQcoaqplxZCU278rtxjxJAQJeUM05uOgcDxfb+xQ8qegctRZRXzPdtHProRwZLyk6xxgIEgO7dY9sZCuN9VqYgKew+IXjt4txDxnEs2ms3XwBDiCLQ8d1xJvuOJzg8eM65tir0F5upOfY3ovUyn8cOa3oGDuUmrgNxUTXOdzZiO0BiIZ7f9EE03hPqt1w/3k8cWA9Z6XEvwNTis6j7SJ4Jg00O7Ba2fm09AgatSdFWyTevW4FU4sO8oCt53AQieOKzjEWsu0zFzWBtGxl3xQ8v+gcY2BbynezgBWpj8YqYAF0EpW3j9tok494HPDWcRtv/JSI9FI+f9h+4zZilt5EYvyKj+Ojj8ECdnOUJKlGmraA1b+Mfyjn/DDg9TRQsWSi2/AruoDn0CAN3IEot7FlZzdKu7vUZgIJmN82yOyicwDEUlq3lfgA8PdFZxkDlcjrtIeHHlUsoZQlXgMNuVPpcJ52s+H2tjUboeGKsJMgvYvTZu0zLqNFdhQ0ZEEUYC6Vlv8zLiN97gXPgeiG+t1Jdw9tZMoGC1iSpAmrKQtYfUt5S8B3gVlFZ9FfKo9wHNBQzWenbGDjzm4TGVtg54WuiShBeyS+0nc+Tys6y0DiTSnx/qJzjJEtKdul5aqqE+v3p53EB4vOMUa2ZLB+t+7RQ05qyGL+09gWXxjzUU6Z9UwifZ7GvSg3meAETp719DEdpefIMnmcADx1TMcpxjpKUxqtSCxJaiJNV8DatIyFZHwZeHLRWfSXNi3jDZF4D4118j20KzvwpWAz7OZym4nliVT54cZlxT3v+pbx1kj8B426XDjoy3d3yZYK1TbMe2nAXmwABJsJ1u3B/e4agzRFS8AbOWXmp8dshM/NeBrwAxrsAtAjJJ5FFqfzmSPGpkl9DxntQ1+CeBWNspHMX7qT8jQLWJKkCatpClgbf8q0Tcv4eoITCca+WWMQKTVcL48x07ec9yf4MjB+/S3GQWIXP4wlNgIbxjZN4Z6bwfK+c5kxnoPGCsp9S/kUcMa4PPeLkrgvMu4vOoZ2zcblPDuCTxadY8wkNkfGvXtwzz/ReMsIYfsy0WM5ZcY36TmsthuVnDLzGPJ0AUQjLo1+NC+lXPo5i15wRE2Peurzn0LbzJ8R/DONt3RwVLqd1nWN+PySJDWJRprpskP9yzgE+GrAixi/n7nz/qX8VVtGNY08slAYLeRbWh97tsT+g4ykeQyPXcRibfwp07J25hH8G8Fzabw+MBGJP+3SDSvcl5VYFzC+uyyNv0PIOL9vOZ/vbOXUNHtslwttOo/D+ob4QkrMovF25Xq4da0j3Fd0CO3clvM5sFLl+0Bn0VnGSoJNHTl37MEdbyTIacwLbK2Q3kFby4tYNOsUhvu+R8/aPd85dNELjiDlC4E5NOrM0keXAc8l5b9m0czvkEqnsvCS2/f4aJ8/bD8qLR+iyj+xfQZbI/7ujYobmH5wDlcUHUSSpD3S0AWsCFLfcv5PwH+xvZfBeDYG/7dS4l9Hgkd/lANahx57hlZ/gr5lO53FNQQ7XaK2Bajs4HsJqAJbgQppB49RUCXYwmPvclYlMUA85uNcJegg8TfAQQStNG5hIQhu2ZUbjlRZP6nMvU0yZ6+T4JP9Q7y1bzmnD7fynf2PZEstZixGkDiJ1DeT56TgQ5HzurS9MNoomwLsUAR3t0/doxkvGicRpP7zeGq1yo9pzI0E/izYsEcXYPJ0AymqNO75SQl4Gim+Slvnpzhlxi+BZVQra3jawetYe/ZjvA7OmEobzyIxm0jHQP5Mtr9/NnDB5TF1kHgfVP+JxTNXEukX3WBJMQAAIABJREFUwKUM9V0Pa3d0zgP7dLew9b6/gdILCF5JhRexvQDYqL9zDxHXMv/satEpJEnaUw37Zh0rKA8s4+0kvgy0FxChJY3PFPTaXnV9rBLCrpQAdqUE0fClhAcFwU27csP9X8XApqXclprnsSkDf0vwpdZhPtO/nJ/1L+MXKfjN1HYGWE/O/uSsJ1hLcOLDfrNOInEoiYPJWEd2d5VSW5m/GVjOy2IGb0rBc4BSaqLftgS3ptk7LFSrQNFDxkuYNLCcfyRYHInHF51pjEUOt+7RPbN8LZGa4QP2JOAgSO8B3k2pBW65YxNtM26HdD/BIClVISYDXcCBwBOAbPQiUdO8tu1Eie3N3eeN7hoYtHUOwYw7gHshG4DISZSALiIdwNaNB0CpFUg7vGjXmIJU3qWLapIk1auGLGBt/CnT+gf5MIlPNNOZiepORMbvd/XGKeMOgqC5Ppik0b5U7wx4ZyTyvkHWpg7WMsQNdHB3zOS+dB5bImeQjCxLtMVMOlPwhLiPJ5L4uyllDgP2a44JbI9qmD0tGDS6fPvzKR57ZmjtnETiJWQMUrq3RHnyNtr7yxzFEB8GDm+KZ3eiL4Nr9+i+g5VraGtppkLsQ4tR+0Da58GvNsmU3Bp64LGcDOkQ4JAHH8MHH8omfkwTfyBPg0XHkCRpbzRcAWvTeTwl5ZwMvLHoLGp61XJ11wtY5NxM4m62X2lvVllKPAN4xgNfSKOfN1ICAuKhn0ea+LPIw9yaSrs226/pJA7uW8YR/cvZZyyHiSCyEpPy59PGMPtlGU9uzzksyvwDjdff77EF9wVcs0f37bliK6fM/CPw7NqGkppccDnDgw3bV1WS1BwapoAVQepfzuHkfA14btF5JOCOqUdzz67eOA/WpsSNqbkLWNoz1+cjezjjpfG9ZfTPmEpp+7q5BwutYz1gPUvcP5hYu8f3Dy4h8Uyat7eTVHuRLoaOPd80QJKkOtAQJ4dxOS0D5/FKYCkWr1QvEpfuzs2nH81t4Cwa7b6A66e9go1F55DY3vvvj0+Yw5Y9PkIWK2jyGqBUYznBpfSsbKbluZKkBjThC1jrf05H/zr+NYKfAfsVnUd6QIKLd/s+wdXAyBjEUaNKbAIuKzqGNGozsXvF+0dI+W9gD3YwlLQj1zNp231Fh5AkaW9N6ALW1nM4aFIrnyJxetFZpIeJvMKFu32vRC9wc+3jqGEFv69m9BYdQxq1Psv24LXvoY677B7gd7WJIwnSz8km7fmsSEmS6sSELWANnMczRsp8leCDRWeRHiFxXdflu78rXGcbv0vsRuN3Kbhq3zncUXQMCSDBbR1z+UMNDvWTGhxDEkDEeXx4lTsQSpImvAlZwNq4nNnVKj8Ajik6i/Sogh9z6INbo++yNJshYBUun9GuWZfg/KJDSKOGAy6qyZES5wB5TY4lNbfbKVWvKzqEJEm1MOEKWH3LeVsWnJ0Szyg6i7Qjkfhpmk91D+9+bsANNQ2kRvXbkVoVDKS9lGB9yvhhTQ62oPdaSL+tybGkphZnUi73FZ1CkqRamDAFrPuX0tm3jI8TfBvYt+g80mO4rqt/z5cBdnZzfZbsaaSd2gqcv+88+osOIgERsLZzDrWZ6REkIv96TY4lNa8R8tJylw9KkhrFhChgbVrKU0uJLwCfBkpF55EeU+K/YI9nXwGQ5/wIuKc2gdSgri2XajTbRdp7WxOcVbOjJYK8cg7gzBFpj8WFUHFGtySpYdR9Aat/KS9Mia8l+Jeis0i7YCCv8rO9WD4IQNdmVqbgklqFUsMZAn455eXcVXQQCYDE7ZUyP6vpMUeuuBdYUtNjSs0ksm+ybc3GomNIklQrdV3A2rSc10Xim8BLi84i7YqAH07bwt17e5w0n23A90hsqkEsNZiAG8sl/l/ROaRRI8DZ+xxV49lSJxJE+mpNjyk1j6vJ8lX0uBmCJKlx1G0Bq28ZH0jBGcAhRWeRdlGQ+Opo8WmvdbSznODSWhxLDWUI+IGzr1QvEtxbKnPGGBw4GO77A6Sf1/zYUqOLdDqD7bYikCQ1lLorYG34FV19y/gisAh4XNF5pN3w/a5W1tbqYGk2Q3ni88D9tTqmGkDi6pT4WtExpFHVCL499WXcOyZHP3HtCPC5MTm21LDS5aTsAnpWVopOIklSLdVVAav/XP62VOE7wL8Bk4vOI+2Gkcj5IkcyXMuDTpvDSmApELU8riaszSlY3DWXDUUHkQAI/kTGf47Z8RPBJK4k+P6YjSE1moivcPCBfyo6hiRJtVY3BayNy5kd23fUehV1lEvaFRGc3rWFa1KqbaEpJaKScQJwWy2PqwkpB37c0cY5RQeRHhCJk8e8oPrhVYOUOA1qe4FAakiJpUTLucw/e682k5EkqR7VRaGobxlvTcF3CZ5TdBZpD9yclfhGrXpfPdy+c7gjEosDBsfi+Jow/phlHJdm45IQ1Yverja+My4jbW27BmLxuIwlTVwbifwMPnbx+qKDSJI0FgovYPUt49PA6QkOKjqLtCcSfLpjFTeM5Rhd/XwnwQVjOYbq2lAKPtoxh3VFB5FGjQAfSLMZGpfRelZWiPw7wJXjMp40MX2dyft6riBJaliFF7ASvBKYXnQOaQ+dWR3i52mMt6lO8xlsqfA+gtvHchzVpWoEX+nY7NJB1ZXPdnVz2biOuPCyP5LSp8Z1TGmiCC6ilP8XH1jmUltJUsMqvoCV8Rbg/KJzSLsr4HelnNOmv4ZN4zHe5GP4E4n3AVvHYzzVhwQXb63yyTQf+5moLgRctG0bp437wIlgsHU5EYvGfWypvq0nxX/w0TW3Fh1EkqSxVHgBq2MOv08V3pJwW3hNKENZ4hNT5vH78Ry0czXLAz4D9kFqCsGNpcSbDzzGoqXqxv1Zznv2fxUDhYzes3II0v/DJdXSQ53OUPu51HgjGUmS6k3hBSyAzmO4r2N//r+Aj+EuQ6p/ASzo6OWcWu86uDOph7yrjVMJlozmUOO6PzLeOGUudxcdRBoVJN7RMY8bC02xsPc2SCeSuKPQHFJ9+DZD/Z+jZ6UXtiQ1niA9+EcCykUHeEA6nJEITuk7j5tT8HngiUVnkh5FNQWLOzbzX2Pd92pH0mwqd53Du6eU2J/EUUVk0JgbiMQbp83lt0UHkUZVAv6taz/OH+/C/SMkAlZdyqKZx5L4DtBaaB6pGAH8mkr6BD1rx2QXZEkqRM+hk5g8ZR+i9HxO4e8gTSHl/ZyS/Y68ejn7Vvt57xUjRcdUMeqmgAUwelK8pG8ZfwTOAJ5HncwSk4AKia9vzTi5cz6FniweeAxb+y/gTTHCcuDwIrOo5ram4O1d3S6RUt0YIfG5rn7+O3VTPyeMx/f+kMUz9iXSaVjEUtNJV1DKP8LC3j8VnUSSaqLnyDJtw38HsZCc1wKQGIHIIWUQk8iybWzMvsfnXvAFnnzQrcw/2x6xTaYui0Nd3VyWZRyd4GdQRyfLamYjCb413MpxT5jDlqLDAHS+jPsrwWsCfld0FtVMP/DPnfP4WdFBpFHbSHxlywgnp/kMFh3mERasPoMUn8X2A2ou1xHVBRy7+pqig0hSTZze3Urr0L9A/BZ4BYlzgPlURw6htPUgUhxKpLeRuBh4O3n+W26+cz49R9bVhByNvbr9D++YwzrgdX3L+Q+CfwGmFp1JTWsY+ObmCsceOLu+mmnvO4877z+Po8vBLwieU3Qe7ZX7UvBui1eqI0PAN7eMcEJdbyQwuPqztM1sAz4MtBUdRxpjNxDx7xy/5sKig0hSTfQcOonBTR8mcTKRLqYUH+S43oe30dgCnA2czeJZLyXiC6Q4i/bBNnr4DgW1dtH4q9sC1gO65vKhvuXcGsGxCQ4qOo+azkBKnNExh+O7iu77sgP7zuGOgaW8PBI/DDgSbHI40SS4Mw/+uWse5xedRRo1kOArHQOc2FXwkumd6iGnp/cTtM5IpPQBYErRkaQxshbShzm+1/cKSY2hh4z2jlcScTKkcxlufSOH7j/IZ0cOYFLrn5cHpuGczR2b6Vk5xIJVv+azh3VTbjmbSN9i8vNvItb8xp1Ym0NdLiF8uK65fDEL3udSKY2ze0h8onMuCwtvWrwTHfNYXynzmhT8BJfSTDRr84xXT7N4pfqxPkFPZzfHp3ovXj2gh5zjV3+MlD4L9BUdR6q9dDmkd7Nw1XlFJ5GkmikfcRCRFgHXUam8j56Vm7n5tpdQKv8P1fgulXwJlfgR1Zbv0j54LItfeAg9ZJxwxd1E9b2Q7ibSYhYf1ln0j6LxMSEKWACd8zinFLyR4FdFZ1FTWEPiX7rm8sWig+yqfY6ir6OdNwacDtxfdB7t1AiJZTkcPW0OVxQdRgIguDGC/9vZzWlFR9kjC1YtAo4H7io6SpOwee74uIAUb2fhqkuLDiJJNdNDRkvpxcDfEHyRj192BwBZehKkF0McQaKVFC0EBxPpU1D5NlNf8EQAFl72B4JvEGkWUTqMcBVKM5gwBSyAjnmsrcDrge8AlaLzqCENAGfmOfO75nJu0WF2V5pNZVo3x6XEsQQ3Fp1HO7Q+gtM7W3nt9G5uLTqMBARwQWS8cdo8flR0mL2ysPerZOm9wMP7Z6h2cmAJic8D7oI3drYRfIfWtjewoPfaosNIUk21HdZBznzgRoZH/vsh3xn9nJ++xsLeWSzsncVQ22EkLiHSLKrxNw/eMs+/AqwnK/0jX+qeNJ7xVYwJVcAC2Hce/V3dvBM4hcSmovOooVwewYKubt41/WhuKzrM3uicy7dT4h0JVhSdRQ+TuIrEB6fN46NpNkNFx5EC/hTBqfkQb5g2t0GKPset+iXV7B0kzsZZQjUWmyCdRmnrP7GgdyHwPoirik7VgO4EPs3xve/kQys935XUeLKsHXg28Dt6rnjkZjERk//8j4GcGN0NOa/+ubXLCavvJcVNRDyXDetKY5xYdWDCFbAe0NXNJ1LOR4Cbi86iCe8O4EuUePO0eXy16DC10tnNqrzK61JicXiFvB5sAb6bVXhz11zOKjqMNOqCLONfp81jwfTXNNhFoRMu/T2DbW8mpU8QE/uiRB25mpQ+yMJVx3LsNVsAWNh7Dqn8RuBMsChfE8FFkP8rC3s/U3QUSRoz22gh0UnawaqRxAxOmflhFs06ltaWM4DnQ7qbcrrvL26XpxuAx0PHhK1taNfV/S6Ej6VzHt/atIzbEnwamFV0Hk04G4DzCL7bNY9lRYcZC9NewUZgYf9SLonEvwEvLzpTU0qsTsHXO+byrXrfEEBNInFVBD/MKnyj8xju2/kdJqielRVgEafM+i3Ee4DXFh1pghoBvkeWnc5xlz5yttWCS66nh3+mdeZq4H0knjXuCRvDfcB3yeI0Fqy5s+gwkjQuIu3o3HgGMIOHfjvxP2yp3PQXt0pMBTLaR+yB1QQmdAELYFo3v+5fxp154pQUvLroPJoQNgDnR+KnXf38OM1v/OUlnfM4Z+A8VlervCsl3gb8fdGZmsHozLcfZIlvds7luqLzSMDNAT+NnLOmz+PKosOMm4WrzuOUw3qJ8qWk9Da2L1nQrlkDfIOh3m/SQ77DW/WQQ+9/8bmZawjeTfBWYOq4pZzw0rmk/EwWrJ7YPegkaVdNYoQq/aT42x3cYjXwS1IkIuskxT9C/kwmtTwXuASAILGYZ0O6h8Ghhv9MpwYoYAF0dnP9xp/yrtTKbST+veg8qlu3AMtT4vyOVs5rtv5DHXNYByzuW8aFJN5M8BZg/6JzNaihCH5AiR9Mm+POqaoL10fw81JwbsfR/G/RYQqx8Io+4AssmnUhWf4mIr0ZOKjoWPUr3U3kZxJ8j4+tXrvLdzuu97f08H7aZ/yaSG8Hjhm7jA3hClL6Hlk6i2NXrys6jCSNmzwfJJWvgngui1/YwYJLBh52i4v+Yin1KbMGgJMo8U56jryanpWbWTzjhcBBpLgABt3krQk0RAELYPpr2BQr+OjAMHdEcAIwvehMqgsjwIURrMgSl3R285uiAxWtq5vLgMv6lrGcxKsI3g5MKTpXwwjOyhM/Hqyy/MB5PLIhpTS+fsP2pdIXTJtHb9Fh6sLxq64ErmTxrPOIeBXwJmC/glPVk0Hge0Qs4fjVF+zREXrIYfWP+NwRvyHKRxPxFmB2TVNOfNeS+D5ZnMOxvdcUHUaSxt3BB2/mj3ecTfAqovpWeKAXcTZp++bI8bD35vxqSCNE7MekajuwGdKHgXaIJZy4doSe8f0RNP4apoAFkGZTAb6waSm3pcRJwKFFZ9L4CxhM8L8RXJzBNdXgmom+q+BY6OrmvFjBRf2DnEOiG3gLsE/RuSaobST+JwU/y3NWTt/ee0wqRMCfElxAcGFKrO7s5vqiM9WlBat+Tc+RF9E69AtSeinEPwJPKTpWgYaA/wF+wtDIrx91R6jdddxl9wDf5HMvWEm1+lJSegPwsr0+7sR2JcQSUlzAgjWXFx1Gkgoz/+wqi1+4AirXQ/ZRFh1xHsdfdgupegNkS+FRJx7kkKp87OL1LJ71aiJeSYpVDLZfhn1mm0JDFbAeMG0eP+o7lztIfJrEUUXn0dhLcE3AlSQuJ2dttYWb9jmK24vOVe9Gl1EuiyWsHOjk7ICXEbwei7+76m6CJZHxSypc0WXhSsW5i2BlJP43BVfnw1zXcLsKjoXtTd4voIcLaX/+j4n0QuC1kF5cdLRxtB7SWUS+lLb2NXxoZe1/b4679GbgZhbNPJ8UMyG9hu0N9RvyPPRRBb+A9HNSZTULL/tD0XEkqS485cB7ufn2E0jxI1Lpy5z6gndy7KUXs3jGHxls/8v3oyq9lOMYsriJRTOPhDgdSATHceLKLc6+ag4Ne+LQdTSrN57Lu7NED/DOovOoZgL4I8HNJG6I4Grg5gzuiYx7uuayoeiAE1GazyBwcVxO7+b7OTtyDo/gdSReUXS2OnUxiSVRpXeozLVPmMOWogOp6WyJxBUZrMqDK8i4pVTl9o5u1hcdbELqIYc1lwOXs+iIc4js6ZQ4kkivBZ5adLwxsprghwSX0rLl9xx7zdi/jh3feytwK5+dsYIsfRV4GSm9GqJRNxa5DvgRka+gWrqej6/6U9GBJKmuzD+7ytcO+wWbyp8k0qeo5j9m0cxPsKB35SNue8Lqe4FfsWjmP5L4PMFfAe9h4erfsHDck6sgDVvAAph+NLf1LecjwO0Enxzn4dcAlwFVguzh3wyYktIjvz4qS9CeQ+kR34CI7f9vbWz//iOmSiYoRWLyDpMFLcDkR51mGeRAe0Br9ijHju1fm8KjZNsFCdgWMDz6jyES2wgSsBXYSjAYic0pMUDORhKbSGwMuJuc+xJszTIGtmX0U6Vv33n070EO7UA6nBHg98Dvt5zP+dUqB+fwogSvAY4oOF7RrkuJn+dwQQQ3TZ/LrUUHqrVUIZHt0XNbY2sjiRsIborgd1mJP+QV7omM+zoGuHe0AK1aOf6yW4Bb6DlsJZPKZ5LFU6B0JMQc4JlFx9tLN0H6GcGvKaUbR2dGjb/tH0LupefIXtpHvktUng5pDtANPLmQTDWT/gAsI89XQHYLU6f9kQ8sGy46VU20VhPbUsejnB5OXCmmMFRJRcfYsfRop+MTWF6mRB0/3jU0VE1kqYtG+3FTqn3f3PdeMULPkafSNrQJOJUUP+WUmedDnEPOb8nKmyHvgphJ4tUEc4FNpHg7T/nrs7DFZ1Np6AIWQNdcNsQSThno4JaAUxmnXddSYkWlxKLqVvKs5ZGvXKWcEuUdv6KlnFJpBy/wWYmU8h1/yEzDpKG2x/h+hSwFJaqP/o6YJlHKqo9eXEs5kRJlsj18Na6QR2n7NtxRIo9tVMlIkajmGdW2RDUPKnlQ2TbCyH6djHAR29Jjbd2tMTHl5dwF3BVLWLNpCmeVMp6Ywz+Q6E5BUyyvSXA1sCzPuJAqt2ypcPeBxzRuY/a8zAg560hMInAr4rEVwACwDdicYIDgfhL3RbCOxD3ArZGzrpTYOlJmczmxpXMa/aOFZo217T2g1gJrOfVZK6HtDPLS/uTxPDKOJGcmiScVHXOnUqwi+BWRLoZ0K+Utd4/LbKtd0bNyCLgeuJ5TDltJVv4PgieTZy8i5S+B9CLq/9PffcAqUrqQYA1RuYfy8L0srJPHuJb6W7fSPng6eXoqWUz894g8lciyqxgq1+9FgBSbR9+PG2FJeCsp3cdINMdOcW2lrWyLT0KaTsobpAqZMogrx+TQPSuH6OErTJq5hox3Ae+ANJ+MDVAdASYB0wn6gM9DfhYL1lwNq8ckjupXvZ8U1EwsobR5Kv8QidMDnjUOQ/Z0dXPSOIwjjZtYSuvWjH3yxL55zjMTHBnwEuCQorPVyDrgQuDiyFlTLXPvCGxoliWCsYRJfVN5YtrTArV2WeREJKrkRJ6otgaVPKdSaWNk+ka2AdvSfIuIdWnJG0rcdNs0Wugkyl1E/mwiPXf7Mrj09xAHFJhuC3AlsIaISwmupVTeREu+kQ+vqt8P6Q932qx2BrdNI03qIqs+lSjNIMXhkJ5T8OM7AvwO4vek7EqqcRnl7B4qpX723bqJ917R+MXlnkMn0dlVor914n8g7xxOTNlWqev/t5Ofvy+llv3I84n/flDKE9vyISpb7qVn7bai44y5IPGl7klsGGycc6rxes4sfmEH1ZEDyLKnEjydlDog7yPSHyDdyvC2u2qy0YgmpMZ5Qu2iTefxlBR8haB7TAdKfKpzDj3J3RDUoCJIG5bR0VZmar6NrmqZQ8l5fpY4PBLPI5hWdMadCOCqBJeRuCyvclW1zL3ZVgamTWPz6K6mkvTYesjgyMlMHWijWm6jmk0l40kQB5PiKUR6EnAg8PjRP517OWIVuBu4C7iF4GayuB7iWkrl9QSDsHlL3cyyqoXTZrUzVJ1MKbVDeQrVylPJ0tOBJ0M6GOKv2f7YPq4Go90P6R6Ie4A7SHELkd1M4iay6nq2pa2UKkMMDQ42xYdwSSrS1w5rYfhxGRsGq6Mbr6jJNV0BC2DDr+gqVVlE8L4xG8QClppM9JBxKK2bWmgtT2ZSnuiiytNS4hk5HJIFTw54Etu3qd9R/7exsAH4YwpuJXFjBL+PjGvLVe6qltg2mBh+/CSGLVhJqqmeI8t0DrcwkpWZ1FJicGuJSGWoZGQtraS8i4xOKqmDEpPJUwlSDjGFLBLBIJGCLA2TxyZK2SZSpY+IQSptVVJUyKLCYMsIh+4/wvyzJ/4Mjd3Rc+gkaC9DuUxnVmaoXCK2lmlpnUw1OiG6SHQA7dvvkNpItBD5Fkg5KXIiBsnoJ6U+UqmP4eFtTGqtMlKpklUrDHVU2ad9hA3LRrCVgSRJhWvKAhZArKBtYJj3R3Ai0FHzASxgSUSQuIIyt1Bevz+l0iBZKaeUyuybEo+r5jwhJR6Xch5HYlpAR0p0kDMFaCXRNtqP6c/Po0QKGE45wyQGgQES/RFsJrg/y1gXcHfAuha4e9sgg5WM6khG9YASVTZTcWmWpLoRJE56yPnYoW/489/Xnr39tc/iyZ556GN76BsSa9cnDt0/HnxcTyQedUMbSZJUl5q2gAXb+2INdNEdVb5C4q9renALWNJOjc7aSuxPomP09egWElNH/96+g9eowYc8rzYTHDz67wGCi8g5kfC5J0mSJEmNo6kLWA8Y+CV/l5f5NsER1GppkwUsSZIkSZKkmhjPPjR1q+MVXLttmKMCfs72Lc0lSZIkSZJUJyxgjdr/VQxM6+a1wJeBvqLzSJIkSZIkaTsLWA/T1c1HIjiW7dtTS5IkSZIkqWAWsB7FtHl8PQveTOLaorNIkiRJkiQ1OwtYO9Axj4vyKt0JVhSdRZIkSZIkqZlZwHoM04/mto425pH474DBovNIkiRJkiQ1IwtYO5FmM9Q1l3ckWAysKzqPJEmSJElSs7GAtYu6ujmJ4MPA9UVnkSRJkiRJaiYWsHZD1zy+n+BdwKVFZ5EkSZIkSWoWFrB2U2c3q3J4S4KfFJ1FkiRJkiSpGVjA2gPTu7m1UuafSPwnMFR0HkmSJEmSpEZmAWsP7XMUfZ39fJTEscBdReeRJEmSJElqVBaw9kKaT7VrLl8m8Z4EVxedR5IkSZIkqRFZwKqBrrmcW815J3D+g18MorhEkiRJkiRJjcMCVo1MP5qr8pz3BHwDIGByShaxJEmSJEmS9pYFrBqafjS3UeU44PQscW+soK3oTJIkSZIkSZIkSZIkSZIkSZIkSZIkSZIkSZIkSZIkSZIkSZIkSZIkSZIkSZIkSZIkSZIkSZIkSZIkSZIkSZIkSZIkSZIkSZIkSZIkSZIkSZIkSZIkSZIkSZIkSZIkSZIkSZIkSZIkSZIkSZIkSZIkSZIkSZIkSZIkSZIkSZIkSZIkSZIkSZIkSZIkSZIkSZIkSZIkSZIkSZIkSZIkSZIkSZIkSZIkSZIkSZIkSZIkSZIkSZIkSZIkSZIkSZIkSZIkSZIkSZIkSZIkSZIkSZIkSZIkSZIkSZIkSZIkSZIkSZIkSZIkSZIkSZIkSZIkSZIkSZIkSZIkSZIkSZIkSZIkSZIkSZIkSZIkSZIkSZIkSZIkSZIkSZIkSZIkSZIkSZIkSZIkSZIkSZIkSZIkSZIkSZIkSZIkSZIkSZIkSZIkSZIkSZIkSZIkSZIkSZIkSZIkSZIkSZIkSZIkSZIkSZIkSZIkSZIkSZIkSZIkSZIkSZIkSZIkSZIkSZIkSZIkSZIkSZIkSZIkSZIkSZIkSZIkSZIkSZIkSZIkSZIkSZIkSZIkSZIkSZIkSZIkSZIkSZIkSZIkSZIkSZIkSZIkSZIkSZIkSZIkSZIkSZIkSZIkSZIkSZIkSZIkSZIkSZIkSZIkSZIkSZIkSZIkSZIkSZIkSZIkSZIkSZIkSZIkSZIkSZIkSZIkSZIkSZIkSZIkSZIkSZIkSZIkSZIkSZIkSZIkSZIkSZIkSZIkSZIkSZIkSZIkSZIkSZIkSZIkSZIkSZIkSZIkSZIkSZIkSZKixYWQAAADRklEQVQkSZIkSZIkSZIkSZIkSZIkSZIkSZIkSZIkSZIkSZIkSZIkSZIkSZIkSZIkSZIkSZIkSZIkSZIkSZIkSZIkSZIkSZIkSZIkSZIkSZIkSZIkSZIkSZIkSZIkSZIkSZIkSZIkSZIkSZIkSZIkSZIkSZIkSZIkSZIkSZIkSZIkSZIkSZIkSZIkSZIkSZIkSZIkSZIkSZIkSZIkSZIkSZIkSZIkSZIkSZIkSZIkSZIkSZIkSZIkSZIkSZIkSZIkSZIkSZIkSZIkSZIkSZIkSZIkSZIkSZIkSZIkSZIkSZIkSZIkSZIkSZIkSZIkSZIkSZIkSZIkSZIkSZIkSZIkSZIkSZIkSZIkSZIkSZIkSZIkSZIkSZIkSZIkSZIkSZIkSZIkSZIkSZIkSZIkSZIkSZIkSZIkSZIkSZIkSZIkSZIkSZIkSZIkSZIkSZIkSZIkSZIkSZIkSZIkSZIkSZIkSZIkSZIkSZIkSZIkSZIkSZIkSZIkSZIkSZIkSZIkSZIkSZIkSZIkSZIkSZIkSZIkSZIkSZIkSZIkSZIkSZIkSZIkSZIkSZIkSZIkSZIkSZIkSZIkSZIkSZIkSZIkSZIkSZIkSZIkSZIkSZIkSZIkSZIkSZIkSZIkSZIkSZIkSZIkSZIkSZIkSZIkSZIkSZIkSZIkSZIkSZIkSZIkSZIkSZIkSZIkSZIkSZIkSZIkSZIkSZIkSZIkSZIkSZIkSZIkSZIkSZIkSZIkSZIkSZIkSZIkSZIkSZIkSZIkSZIkSZIkSZIkSZIkSZIkSZIkSZIkSZIkSZIkSZIkSZIkSZIkSZIkSZIkSZIkSZIkSZIkSZIkSZIkSZIkSZIkSZIkSZIkSZIkSZIkSZIkSZIkSZIkSZIkSZIkSZIkSZIkSZIkSZIkSZIkSZIkSZIkSZIkSZIkSZIkSZIkSZIkSZIkSZIkSZIkSZIkSZIkSZIkSZIkSZIkSZIkSZIkSZIkSZIkSZIkSZIkSZIkSZIkSZIkSZIkSZIkSZIkSZIkSZIkSZIkSZIkSZIkSZIkSZIkSZIkSZIkSZIkSZIkSZIkSZIkSZIkSZIkSZIkSZIkSZIkSZIkSZIkSZIkSZIkSZIkSZIkSZIkSZIkaSL5/wGxM9ItT7C7ngAAAABJRU5ErkJggg==;" vertex="1" parent="7">
                    <mxGeometry x="450" y="40" width="720" height="378" as="geometry"/>
                </mxCell>
                <mxCell id="39" value="Your total comes to $9.89." style="text;html=1;align=left;verticalAlign=middle;resizable=0;points=[];autosize=1;strokeColor=none;fillColor=none;fontSize=24;fontColor=#000000;" vertex="1" parent="1">
                    <mxGeometry x="60" y="460" width="300" height="40" as="geometry"/>
                </mxCell>
            </root>
        </mxGraphModel>
    </diagram>
</mxfile>